#define warning_width 32
#define warning_height 32
static char warning_bits[] = {
 0x00,0xc0,0x01,0x00,0x00,0xa0,0x03,0x00,0x00,0x70,0x07,0x00,0x00,0x90,0x06,
 0x00,0x00,0x30,0x07,0x00,0x00,0xb0,0x07,0x00,0x00,0x90,0x06,0x00,0x00,0x30,
 0x07,0x00,0x00,0xb0,0x07,0x00,0x00,0x90,0x06,0x00,0x00,0x30,0x07,0x00,0x00,
 0x90,0x07,0x00,0x00,0xb0,0x06,0x00,0x00,0x30,0x07,0x00,0x00,0x90,0x07,0x00,
 0x00,0xb0,0x06,0x00,0x00,0x30,0x07,0x00,0x00,0x90,0x07,0x00,0x00,0xb0,0x06,
 0x00,0x00,0x70,0x07,0x00,0x00,0xb0,0x07,0x00,0x00,0xf0,0x06,0x00,0x00,0xe0,
 0x03,0x00,0x00,0xc0,0x01,0x00,0x00,0x00,0x00,0x00,0x00,0xc0,0x01,0x00,0x00,
 0xa0,0x03,0x00,0x00,0x30,0x07,0x00,0x00,0xb0,0x06,0x00,0x00,0x70,0x07,0x00,
 0x00,0xe0,0x03,0x00,0x00,0xc0,0x01,0x00};
